<svg id="レイヤー_1" data-name="レイヤー 1" xmlns="http://www.w3.org/2000/svg" viewBox="0 0 111.4 44.1"><path d="M87.4,53.4c7.2-1.2,13.3-.7,17.8,2.4a17.1,17.1,0,0,1,7,11.2c2.3,14.6-7.7,22.6-21.2,24.7L75.9,94.2l-.3-2.3c4.2-1.1,4.6-1.5,3.6-7.9L76.1,64.8c-1-6.3-1.6-6.7-5.4-6.4l-.4-2.3Zm1.7,29.1c.8,5.2,2.3,6,5.1,5.6,5-.8,9.2-7.2,7.5-17.6-2-12.5-8.9-15-13.9-14.2a4.9,4.9,0,0,0-2.4.8c-.3.2-.2,1.5.1,3Z" transform="translate(-70.3 -50)"/><path d="M125,50.3c7.3.1,13.3,1.6,17.2,5.5a17.1,17.1,0,0,1,4.9,12.3c-.2,14.7-11.5,20.8-25.2,20.6l-15.2-.2V86.1c4.3-.2,4.8-.6,4.9-7l.3-19.6c.1-6.3-.3-6.8-4.2-7.2V50Zm-3.3,29c-.1,5.3,1.2,6.3,4,6.3,5.1.1,10.3-5.4,10.5-15.9C136.4,57,130,53.3,125,53.3a5.4,5.4,0,0,0-2.6.3c-.3.1-.3,1.5-.4,3Z" transform="translate(-70.3 -50)"/><path d="M162.8,53.8c7.1,1.4,12.8,4,15.9,8.5a17.6,17.6,0,0,1,2.7,12.9c-2.9,14.5-15.1,18.5-28.5,15.9l-15-3,.4-2.3c4.4.5,4.9.2,6.1-6.1l3.8-19.1c1.3-6.3.9-6.8-2.8-7.9l.5-2.2Zm-8.5,28c-1,5.1.1,6.4,2.8,6.9,5,1,11.2-3.5,13.2-13.8,2.5-12.5-3.1-17.2-8.1-18.2a7.4,7.4,0,0,0-2.5-.1c-.4.1-.7,1.4-1,2.9Z" transform="translate(-70.3 -50)"/></svg>